Coordinates
version=1
nRows=4
nColumns=124
inDegrees=yes

Units are S.I. units (second, meters, Newtons, ...)
If the header above contains a line with 'inDegrees', this indicates whether rotational values are in degrees (yes) or radians (no).

endheader 
time	pelvis_tilt	pelvis_list	pelvis_rotation	pelvis_tx	pelvis_ty	pelvis_tz	hip_flexion_l	hip_adduction_l	hip_rotation_l	hip_flexion_r	hip_adduction_r	hip_rotation_r	knee_angle_l	knee_angle_r	ankle_angle_l	ankle_angle_r	subtalar_angle_l	subtalar_angle_r	mtp_angle_l	mtp_angle_r	lumbar_extension	lumbar_bending	lumbar_rotation	arm_flex_l	arm_add_l	arm_rot_l	arm_flex_r	arm_add_r	arm_rot_r	elbow_flex_l	elbow_flex_r	glut_med1_l/activation	glut_med2_l/activation	glut_med3_l/activation	glut_min1_l/activation	glut_min2_l/activation	glut_min3_l/activation	semimem_l/activation	semiten_l/activation	bifemlh_l/activation	bifemsh_l/activation	sar_l/activation	add_long_l/activation	add_brev_l/activation	add_mag1_l/activation	add_mag2_l/activation	add_mag3_l/activation	tfl_l/activation	pect_l/activation	grac_l/activation	glut_max1_l/activation	glut_max2_l/activation	glut_max3_l/activation	iliacus_l/activation	psoas_l/activation	quad_fem_l/activation	gem_l/activation	peri_l/activation	rect_fem_l/activation	vas_med_l/activation	vas_int_l/activation	vas_lat_l/activation	med_gas_l/activation	lat_gas_l/activation	soleus_l/activation	tib_post_l/activation	flex_dig_l/activation	flex_hal_l/activation	tib_ant_l/activation	per_brev_l/activation	per_long_l/activation	per_tert_l/activation	ext_dig_l/activation	ext_hal_l/activation	ercspn_l/activation	intobl_l/activation	extobl_l/activation	glut_med1_r/activation	glut_med2_r/activation	glut_med3_r/activation	glut_min1_r/activation	glut_min2_r/activation	glut_min3_r/activation	semimem_r/activation	semiten_r/activation	bifemlh_r/activation	bifemsh_r/activation	sar_r/activation	add_long_r/activation	add_brev_r/activation	add_mag1_r/activation	add_mag2_r/activation	add_mag3_r/activation	tfl_r/activation	pect_r/activation	grac_r/activation	glut_max1_r/activation	glut_max2_r/activation	glut_max3_r/activation	iliacus_r/activation	psoas_r/activation	quad_fem_r/activation	gem_r/activation	peri_r/activation	rect_fem_r/activation	vas_med_r/activation	vas_int_r/activation	vas_lat_r/activation	med_gas_r/activation	lat_gas_r/activation	soleus_r/activation	tib_post_r/activation	flex_dig_r/activation	flex_hal_r/activation	tib_ant_r/activation	per_brev_r/activation	per_long_r/activation	per_tert_r/activation	ext_dig_r/activation	ext_hal_r/activation	ercspn_r/activation	intobl_r/activation	extobl_r/activation	
          0.00000000	          2.68891363	         -6.99116951	         -8.27309628	          0.00000000	          1.01842288	         -0.00923115	         23.10367990	         -7.71742334	          9.23837462	          7.23818056	          4.38840670	          4.23338951	        -17.86615632	        -50.53819038	         -1.49433754	        -37.68774435	         -0.92581674	         15.85464643	          0.94751896	         45.41035887	        -13.06500169	          4.08142584	          4.43759748	        -13.16855067	        -19.80335233	          3.21582271	         -0.48792811	        -25.49750608	          3.61216285	         50.64855181	        107.19294099	          0.74679994	          0.70870467	          0.61322104	          0.64549778	          0.64061598	          0.60984913	          0.40813610	          0.34021599	          0.46825181	          0.05001252	          0.43609073	          0.33804798	          0.53563898	          0.59117823	          0.60074622	          0.64405949	          0.55263434	          0.55945345	          0.43624310	          0.61358558	          0.63905602	          0.64198345	          0.22738747	          0.22761183	          0.26580257	          0.48021032	          0.59427284	          0.50677384	          0.35228734	          0.35129329	          0.35798382	          0.06822886	          0.13777953	          0.51596565	          0.63654039	          0.59136164	          0.57212906	          0.64306844	          0.24651405	          0.13240875	          0.44249126	          0.66792001	          0.65205976	          0.19455386	          0.27636428	          0.15764240	          0.95558247	          0.59657452	          0.43749658	          0.81950823	          0.75399746	          0.58337806	          0.50838778	          0.05004024	          0.29168768	          0.29329520	          0.68052053	          0.70832765	          0.44400564	          0.56071090	          0.56867186	          0.42473781	          0.83044456	          0.62012981	          0.32243099	          0.54490246	          0.47973888	          0.40786051	          0.99643098	          0.99544365	          0.05003016	          0.13786787	          0.20670244	          0.99486943	          0.94243920	          0.97873622	          0.85667557	          0.56371756	          0.59107677	          0.81848564	          0.46032944	          0.52860060	          0.54133099	          0.47273433	          0.59803618	          0.54421116	          0.55906881	          0.34313774	          0.47812859	          0.08512368	          0.05000998	          0.05002187	
          0.00785437	          2.47908116	         -6.75010862	         -8.35420746	          0.00606959	          1.01575929	         -0.00860387	         22.98146997	         -7.58568731	          9.58734043	          6.75633979	          4.51587292	          4.63640479	        -15.70127071	        -50.38834163	         -2.22588600	        -37.11753535	         -1.09088512	         14.26232683	          0.85400618	         47.28230256	        -12.84724717	          3.58297080	          4.65896003	        -12.81918744	        -19.74907875	          3.24895111	         -0.08289028	        -24.75852378	          3.68088605	         48.59466026	        106.63604924	          0.74799979	          0.71558838	          0.61734629	          0.64826623	          0.64414163	          0.61116239	          0.51010029	          0.40190054	          0.54505439	          0.05002496	          0.44445156	          0.32838500	          0.52275017	          0.58899186	          0.59866855	          0.64057849	          0.55133167	          0.55765962	          0.44520719	          0.61478848	          0.63815509	          0.63838142	          0.22962380	          0.23196416	          0.26163867	          0.48985268	          0.60565962	          0.54219552	          0.41444684	          0.41528638	          0.35971969	          0.07230762	          0.12209919	          0.52534604	          0.60668950	          0.57990788	          0.55305588	          0.68869813	          0.25018698	          0.12500716	          0.48154250	          0.77581518	          0.70854478	          0.19663696	          0.25274078	          0.15728814	          0.94057007	          0.56965522	          0.43123786	          0.81026129	          0.74284527	          0.58122759	          0.51159213	          0.05002269	          0.29324822	          0.30995223	          0.67696530	          0.76021568	          0.47993183	          0.56457878	          0.57088298	          0.46173713	          0.82035174	          0.62763155	          0.34273222	          0.54397388	          0.47829991	          0.41336786	          0.99765382	          0.99700525	          0.05003531	          0.14689660	          0.19945388	          0.99297972	          0.91108209	          0.95346323	          0.81889306	          0.56358601	          0.59078730	          0.82662611	          0.46674220	          0.53055047	          0.54182935	          0.47465588	          0.58770869	          0.52525352	          0.55847965	          0.34399477	          0.48153826	          0.09827788	          0.05001595	          0.05001639	
          0.01570875	          2.26586623	         -6.50878230	         -8.45112394	          0.01238034	          1.01295177	         -0.00795058	         22.83754929	         -7.43890359	          9.84738011	          6.22708323	          4.63665541	          5.03254571	        -13.87456010	        -50.19790201	         -2.82407668	        -36.50355267	         -1.32460502	         12.54424741	          0.79135924	         49.08978191	        -12.60076616	          3.06985820	          4.89180809	        -12.53635158	        -19.71422210	          3.26737545	          0.25637588	        -24.06267823	          3.74785851	         46.62838249	        106.10452977	          0.74274122	          0.71711115	          0.61896116	          0.64950978	          0.64530126	          0.61101495	          0.60206229	          0.47508703	          0.61942571	          0.06694849	          0.45544944	          0.30884698	          0.51109265	          0.58780245	          0.59700276	          0.63624735	          0.54865135	          0.55762222	          0.45764111	          0.61471911	          0.63532693	          0.63450493	          0.23979985	          0.24415461	          0.26330827	          0.50327726	          0.61862272	          0.55739277	          0.47394017	          0.47563279	          0.36110352	          0.06394837	          0.10797904	          0.49026624	          0.56756706	          0.56497379	          0.52673346	          0.79561747	          0.25552130	          0.11056998	          0.59852829	          0.85285280	          0.80859629	          0.19535820	          0.23072121	          0.15899837	          0.92828368	          0.54735421	          0.42586545	          0.80451131	          0.73562847	          0.58047197	          0.51441809	          0.05004573	          0.29294353	          0.32779738	          0.67518772	          0.80410865	          0.51011699	          0.56724037	          0.57244972	          0.51036425	          0.80932052	          0.63429577	          0.36039864	          0.54310943	          0.47643210	          0.41703859	          0.99845628	          0.99802996	          0.05003133	          0.15426510	          0.19529375	          0.99055884	          0.87381383	          0.92016041	          0.77771643	          0.56361848	          0.59069126	          0.83092701	          0.48373841	          0.53405039	          0.54309215	          0.47982745	          0.57593402	          0.50553256	          0.55674633	          0.34589723	          0.48624959	          0.11293741	          0.05000969	          0.05002039	
          0.02356312	          2.04749414	         -6.26100837	         -8.56311536	          0.01890705	          1.01000601	         -0.00728408	         22.69861817	         -7.25918140	         10.01980540	          5.66552336	          4.74030557	          5.42449060	        -12.50719117	        -49.97398100	         -3.35958821	        -35.87188908	         -1.65001089	         10.72734134	          0.76924289	         50.82104189	        -12.32402741	          2.53829240	          5.13361744	        -12.31964240	        -19.69977203	          3.27075277	          0.53504796	        -23.41139059	          3.81843106	         44.75757708	        105.59701465	          0.72700399	          0.71437205	          0.62044451	          0.64689504	          0.64343959	          0.60986866	          0.67879361	          0.54973177	          0.68479041	          0.13520525	          0.46856377	          0.27312741	          0.49645303	          0.58681997	          0.59494238	          0.63086096	          0.54420245	          0.55828669	          0.47326483	          0.61417861	          0.63236389	          0.63078321	          0.23984754	          0.24416227	          0.28751015	          0.52450619	          0.63513341	          0.55118757	          0.50689625	          0.50904411	          0.36130872	          0.05654834	          0.09548476	          0.43353319	          0.54027769	          0.55451090	          0.50452063	          0.86584714	          0.22599596	          0.09777746	          0.72377339	          0.90342144	          0.87435547	          0.17668290	          0.20403225	          0.15162995	          0.91069223	          0.52878660	          0.42208798	          0.80202553	          0.73054471	          0.58087662	          0.51739264	          0.05001851	          0.29333732	          0.35135395	          0.67424139	          0.83781038	          0.53325861	          0.56899158	          0.57357142	          0.52585705	          0.79153255	          0.63976209	          0.37696464	          0.54235146	          0.47493630	          0.42118223	          0.99898211	          0.99870112	          0.05003075	          0.16188293	          0.19803376	          0.98003208	          0.83624855	          0.88506930	          0.73934739	          0.56343380	          0.59055559	          0.82356378	          0.50612044	          0.53872556	          0.54453901	          0.48687400	          0.56257113	          0.48524746	          0.55538756	          0.35073574	          0.49331983	          0.12298184	          0.05000767	          0.05000890	
